<svg xmlns="http://www.w3.org/2000/svg" xmlns:xlink="http://www.w3.org/1999/xlink" contentStyleType="text/css" data-diagram-type="ACTIVITY" height="758px" preserveAspectRatio="none" style="width:430px;height:758px;background:#F8FAFC;" version="1.1" viewBox="0 0 430 758" width="430px" zoomAndPan="magnify"><title>Agent Karar D&#246;ng&#252;s&#252; ve G&#246;rev &#304;&#351;leme</title><defs/><g><rect fill="#F8FAFC" height="758" style="stroke:none;stroke-width:1;" width="430" x="0" y="0"/><text fill="#000000" font-family="DejaVu Sans" font-size="14" font-weight="bold" lengthAdjust="spacing" textLength="301.6016" x="62.7163" y="32.9951">Agent Karar D&#246;ng&#252;s&#252; ve G&#246;rev &#304;&#351;leme</text><ellipse cx="208.7729" cy="57.2969" fill="#222222" rx="10" ry="10" style="stroke:#222222;stroke-width:1;"/><rect fill="#EEF4FA" height="36.2969" rx="12.5" ry="12.5" style="stroke:#466179;stroke-width:0.5;" width="202.6084" x="107.4688" y="87.2969"/><text fill="#000000" font-family="DejaVu Sans" font-size="14" lengthAdjust="spacing" textLength="182.6084" x="117.4688" y="110.292">Soru ve konu&#351;ma ba&#287;lam&#305;</text><rect fill="#EEF4FA" height="36.2969" rx="12.5" ry="12.5" style="stroke:#466179;stroke-width:0.5;" width="269.8398" x="73.853" y="143.5938"/><text fill="#000000" font-family="DejaVu Sans" font-size="14" lengthAdjust="spacing" textLength="249.8398" x="83.853" y="166.5889">Metrik / kaynak ke&#351;fi ve g&#246;rev plan&#305;</text><rect fill="#EEF4FA" height="36.2969" rx="12.5" ry="12.5" style="stroke:#466179;stroke-width:0.5;" width="226.2881" x="95.6289" y="243.8906"/><text fill="#000000" font-family="DejaVu Sans" font-size="14" lengthAdjust="spacing" textLength="206.2881" x="105.6289" y="266.8857">Model bir sonraki ad&#305;m&#305; se&#231;er</text><rect fill="#EEF4FA" height="36.2969" rx="12.5" ry="12.5" style="stroke:#466179;stroke-width:0.5;" width="244.9844" x="86.2808" y="300.1875"/><text fill="#000000" font-family="DejaVu Sans" font-size="14" lengthAdjust="spacing" textLength="224.9844" x="96.2808" y="323.1826">Ara&#231; &#231;a&#287;r&#305;s&#305;n&#305; do&#287;rula ve &#231;al&#305;&#351;t&#305;r</text><rect fill="#EEF4FA" height="36.2969" rx="12.5" ry="12.5" style="stroke:#466179;stroke-width:0.5;" width="234.4092" x="91.5684" y="356.4844"/><text fill="#000000" font-family="DejaVu Sans" font-size="14" lengthAdjust="spacing" textLength="214.4092" x="101.5684" y="379.4795">Sonucu ve checkpoint'i kaydet</text><rect fill="#EEF4FA" height="36.2969" rx="12.5" ry="12.5" style="stroke:#466179;stroke-width:0.5;" width="267.8916" x="74.8271" y="472.0781"/><text fill="#000000" font-family="DejaVu Sans" font-size="14" lengthAdjust="spacing" textLength="247.8916" x="84.8271" y="495.0732">Kay&#305;tl&#305; kan&#305;ttan yan&#305;t / tablo / grafik</text><ellipse cx="208.7729" cy="546.7266" fill="none" rx="11" ry="11" style="stroke:#222222;stroke-width:1;"/><ellipse cx="208.7729" cy="546.7266" fill="#222222" rx="6" ry="6" style="stroke:#222222;stroke-width:1;"/><polygon fill="#EEF4FA" points="102.2314,421.9297,315.3145,421.9297,327.3145,433.9297,315.3145,445.9297,102.2314,445.9297,90.2314,433.9297,102.2314,421.9297" style="stroke:#466179;stroke-width:0.5;"/><text fill="#000000" font-family="DejaVu Sans" font-size="14" lengthAdjust="spacing" textLength="31.2334" x="212.7729" y="458.9248">Evet</text><text fill="#000000" font-family="DejaVu Sans" font-size="14" lengthAdjust="spacing" textLength="213.083" x="102.2314" y="438.7764">G&#246;rev teslimleri kar&#351;&#305;land&#305; m&#305;?</text><polygon fill="#EEF4FA" points="208.7729,199.8906,220.7729,211.8906,208.7729,223.8906,196.7729,211.8906,208.7729,199.8906" style="stroke:#466179;stroke-width:0.5;"/><polygon fill="#EEF4FA" points="42.7451,599.7266,374.8008,599.7266,386.8008,611.7266,374.8008,623.7266,42.7451,623.7266,30.7451,611.7266,42.7451,599.7266" style="stroke:#466179;stroke-width:0.5;"/><text fill="#000000" font-family="DejaVu Sans" font-size="14" lengthAdjust="spacing" textLength="332.0557" x="42.7451" y="616.5732">Eksik ad&#305;mlar i&#231;in b&#252;t&#231;e ve ilerleme uygun mu?</text><text fill="#000000" font-family="DejaVu Sans" font-size="14" lengthAdjust="spacing" textLength="31.2334" x="386.8008" y="608.4248">Evet</text><rect fill="#EEF4FA" height="36.2969" rx="12.5" ry="12.5" style="stroke:#466179;stroke-width:0.5;" width="395.5459" x="11" y="669.3252"/><text fill="#000000" font-family="DejaVu Sans" font-size="14" lengthAdjust="spacing" textLength="375.5459" x="21" y="692.3203">A&#231;&#305;klama iste veya k&#305;smi / engellenmi&#351; sonucu g&#246;ster</text><ellipse cx="208.7729" cy="736.6221" fill="none" rx="11" ry="11" style="stroke:#222222;stroke-width:1;"/><ellipse cx="208.7729" cy="736.6221" fill="#222222" rx="6" ry="6" style="stroke:#222222;stroke-width:1;"/><line style="stroke:#466179;stroke-width:1;" x1="208.7729" x2="208.7729" y1="67.2969" y2="87.2969"/><polygon fill="#466179" points="204.7729,77.2969,208.7729,87.2969,212.7729,77.2969,208.7729,81.2969" style="stroke:#466179;stroke-width:1;"/><line style="stroke:#466179;stroke-width:1;" x1="208.7729" x2="208.7729" y1="123.5938" y2="143.5938"/><polygon fill="#466179" points="204.7729,133.5938,208.7729,143.5938,212.7729,133.5938,208.7729,137.5938" style="stroke:#466179;stroke-width:1;"/><line style="stroke:#466179;stroke-width:1;" x1="208.7729" x2="208.7729" y1="280.1875" y2="300.1875"/><polygon fill="#466179" points="204.7729,290.1875,208.7729,300.1875,212.7729,290.1875,208.7729,294.1875" style="stroke:#466179;stroke-width:1;"/><line style="stroke:#466179;stroke-width:1;" x1="208.7729" x2="208.7729" y1="336.4844" y2="356.4844"/><polygon fill="#466179" points="204.7729,346.4844,208.7729,356.4844,212.7729,346.4844,208.7729,350.4844" style="stroke:#466179;stroke-width:1;"/><line style="stroke:#466179;stroke-width:1;" x1="208.7729" x2="208.7729" y1="508.375" y2="535.7266"/><polygon fill="#466179" points="204.7729,525.7266,208.7729,535.7266,212.7729,525.7266,208.7729,529.7266" style="stroke:#466179;stroke-width:1;"/><line style="stroke:#466179;stroke-width:1;" x1="208.7729" x2="208.7729" y1="445.9297" y2="472.0781"/><polygon fill="#466179" points="204.7729,462.0781,208.7729,472.0781,212.7729,462.0781,208.7729,466.0781" style="stroke:#466179;stroke-width:1;"/><line style="stroke:#466179;stroke-width:1;" x1="327.3145" x2="352.7188" y1="433.9297" y2="433.9297"/><polygon fill="#466179" points="348.7188,505.7266,352.7188,515.7266,356.7188,505.7266,352.7188,509.7266" style="stroke:#466179;stroke-width:1;"/><line style="stroke:#466179;stroke-width:1;" x1="352.7188" x2="352.7188" y1="433.9297" y2="579.7266"/><line style="stroke:#466179;stroke-width:1;" x1="352.7188" x2="208.7729" y1="579.7266" y2="579.7266"/><line style="stroke:#466179;stroke-width:1;" x1="208.7729" x2="208.7729" y1="579.7266" y2="599.7266"/><polygon fill="#466179" points="204.7729,589.7266,208.7729,599.7266,212.7729,589.7266,208.7729,593.7266" style="stroke:#466179;stroke-width:1;"/><line style="stroke:#466179;stroke-width:1;" x1="208.7729" x2="208.7729" y1="392.7813" y2="421.9297"/><polygon fill="#466179" points="204.7729,411.9297,208.7729,421.9297,212.7729,411.9297,208.7729,415.9297" style="stroke:#466179;stroke-width:1;"/><line style="stroke:#466179;stroke-width:1;" x1="208.7729" x2="208.7729" y1="223.8906" y2="243.8906"/><polygon fill="#466179" points="204.7729,233.8906,208.7729,243.8906,212.7729,233.8906,208.7729,237.8906" style="stroke:#466179;stroke-width:1;"/><line style="stroke:#466179;stroke-width:1;" x1="386.8008" x2="398.8008" y1="611.7266" y2="611.7266"/><polygon fill="#466179" points="394.8008,412.7813,398.8008,402.7813,402.8008,412.7813,398.8008,408.7813" style="stroke:#466179;stroke-width:1;"/><line style="stroke:#466179;stroke-width:1;" x1="398.8008" x2="398.8008" y1="211.8906" y2="611.7266"/><line style="stroke:#466179;stroke-width:1;" x1="398.8008" x2="220.7729" y1="211.8906" y2="211.8906"/><polygon fill="#466179" points="230.7729,207.8906,220.7729,211.8906,230.7729,215.8906,226.7729,211.8906" style="stroke:#466179;stroke-width:1;"/><line style="stroke:#466179;stroke-width:1;" x1="208.7729" x2="208.7729" y1="179.8906" y2="199.8906"/><polygon fill="#466179" points="204.7729,189.8906,208.7729,199.8906,212.7729,189.8906,208.7729,193.8906" style="stroke:#466179;stroke-width:1;"/><line style="stroke:#466179;stroke-width:1;" x1="208.7729" x2="208.7729" y1="623.7266" y2="669.3252"/><polygon fill="#466179" points="204.7729,659.3252,208.7729,669.3252,212.7729,659.3252,208.7729,663.3252" style="stroke:#466179;stroke-width:1;"/><text fill="#000000" font-family="DejaVu Sans" font-size="14" lengthAdjust="spacing" textLength="37.0371" x="212.7729" y="648.5234">Hay&#305;r</text><line style="stroke:#466179;stroke-width:1;" x1="208.7729" x2="208.7729" y1="705.6221" y2="725.6221"/><polygon fill="#466179" points="204.7729,715.6221,208.7729,725.6221,212.7729,715.6221,208.7729,719.6221" style="stroke:#466179;stroke-width:1;"/><!--SRC=[RPBFQjj04CRlVeg17keSIWcOjBMXHKsi5a9wCVG-jaRoTbUxPdTaexwCZhvMbvnoq-gzCkkuO49EMZ7VD_ERFwpO46GLMOPxzEZXRdYqrV0KXYVO4_mO7Ztj8VuREqCrJO9MTYUw6jQuqPLtZIrkdN4UtkMVyoo_lL24BHRke6m59PfmwIsenCPmxYp_mfhWZlxWxmPMQCFRgfNwIt0zkmXcthl3kVBivkRwqvUB86vOxHMttrypBfVvBC_UKZfVa7-LZz7pPBvolacZqCusOrUZT1uxWtNi5vFv0x5N6Zw2njQY1arZLweahrucjpDeazBJZf0d0FC7Lv21jV8GdFMe5M0HUqa7WOOZ-KKIPHw78mn7AULZ7s8lIQ1myjSOJEabP68_TXpx5yTAy3OdqCsMDdhdbENtAd4Ln4cXIfYUryaKZAeD-HJtOnTxeHG848flLy1RiZ1Txecln2Uvxx6DFKizaGi8CrfeJo_fd75jd7mhZwNIYvCZiDl9WsoXodFhSDWgERNfKWSPsAbb8-UcXgEoi1wUM7fFz2BowTIWQQl6Gjq8a0h_SJvyXPy9HdgUPyCnzbesWIBWP6uHj4ohLe93jY9ZoDPgxDAaqt1a9o8KR-9x1W00]--></g></svg>