<?xml version="1.0" encoding="UTF-8" standalone="no"?>
<!DOCTYPE svg PUBLIC "-//W3C//DTD SVG 1.1//EN"
 "http://www.w3.org/Graphics/SVG/1.1/DTD/svg11.dtd">
<!-- Generated by graphviz version 2.43.0 (0)
 -->
<!-- Title: voice_pipeline Pages: 1 -->
<svg width="1205pt" height="526pt"
 viewBox="0.00 0.00 1204.50 526.00" xmlns="http://www.w3.org/2000/svg" xmlns:xlink="http://www.w3.org/1999/xlink">
<g id="graph0" class="graph" transform="scale(1 1) rotate(0) translate(18 508)">
<title>voice_pipeline</title>
<!-- question -->
<g id="node1" class="node">
<title>question</title>
<path fill="#e8f0fb" stroke="#ccd6e4" stroke-width="1.2" d="M117,-483.5C117,-483.5 12,-483.5 12,-483.5 6,-483.5 0,-477.5 0,-471.5 0,-471.5 0,-451.5 0,-451.5 0,-445.5 6,-439.5 12,-439.5 12,-439.5 117,-439.5 117,-439.5 123,-439.5 129,-445.5 129,-451.5 129,-451.5 129,-471.5 129,-471.5 129,-477.5 123,-483.5 117,-483.5"/>
<text text-anchor="middle" x="64.5" y="-464.9" font-family="Arial" font-size="12.00" fill="#102b4e">Kullanıcı sorusu ve</text>
<text text-anchor="middle" x="64.5" y="-451.9" font-family="Arial" font-size="12.00" fill="#102b4e">mevcut metin yanıtı</text>
</g>
<!-- builder -->
<g id="node7" class="node">
<title>builder</title>
<path fill="#fff2df" stroke="#e87000" stroke-width="1.5" d="M612.5,-393C612.5,-393 446.5,-393 446.5,-393 440.5,-393 434.5,-387 434.5,-381 434.5,-381 434.5,-348 434.5,-348 434.5,-342 440.5,-336 446.5,-336 446.5,-336 612.5,-336 612.5,-336 618.5,-336 624.5,-342 624.5,-348 624.5,-348 624.5,-381 624.5,-381 624.5,-387 618.5,-393 612.5,-393"/>
<text text-anchor="middle" x="529.5" y="-374.4" font-family="Arial" font-size="12.00" fill="#102b4e">VoiceContextBuilder</text>
<text text-anchor="middle" x="529.5" y="-361.4" font-family="Arial" font-size="12.00" fill="#102b4e">Şema doğrulama · sayısal sınır</text>
<text text-anchor="middle" x="529.5" y="-348.4" font-family="Arial" font-size="12.00" fill="#102b4e">Gizli alan temizliği</text>
</g>
<!-- question&#45;&gt;builder -->
<g id="edge1" class="edge">
<title>question&#45;&gt;builder</title>
<path fill="none" stroke="#6e829c" stroke-width="1.4" d="M64.5,-439.43C64.5,-408.24 64.5,-355 64.5,-355 64.5,-355 427.28,-355 427.28,-355"/>
<polygon fill="#6e829c" stroke="#6e829c" stroke-width="1.4" points="427.28,-357.45 434.28,-355 427.28,-352.55 427.28,-357.45"/>
</g>
<!-- table -->
<g id="node2" class="node">
<title>table</title>
<path fill="#f6f8fb" stroke="#ccd6e4" stroke-width="1.2" d="M322.5,-490C322.5,-490 166.5,-490 166.5,-490 160.5,-490 154.5,-484 154.5,-478 154.5,-478 154.5,-445 154.5,-445 154.5,-439 160.5,-433 166.5,-433 166.5,-433 322.5,-433 322.5,-433 328.5,-433 334.5,-439 334.5,-445 334.5,-445 334.5,-478 334.5,-478 334.5,-484 328.5,-490 322.5,-490"/>
<text text-anchor="middle" x="244.5" y="-471.4" font-family="Arial" font-size="12.00" fill="#102b4e">Analiz tablosu</text>
<text text-anchor="middle" x="244.5" y="-458.4" font-family="Arial" font-size="12.00" fill="#102b4e">Sütunlar, dönem, satır sayısı,</text>
<text text-anchor="middle" x="244.5" y="-445.4" font-family="Arial" font-size="12.00" fill="#102b4e">hesaplanmış özet</text>
</g>
<!-- table&#45;&gt;builder -->
<g id="edge2" class="edge">
<title>table&#45;&gt;builder</title>
<path fill="none" stroke="#6e829c" stroke-width="1.4" d="M244.5,-432.85C244.5,-407.33 244.5,-374 244.5,-374 244.5,-374 427.2,-374 427.2,-374"/>
<polygon fill="#6e829c" stroke="#6e829c" stroke-width="1.4" points="427.2,-376.45 434.2,-374 427.2,-371.55 427.2,-376.45"/>
</g>
<!-- chart -->
<g id="node3" class="node">
<title>chart</title>
<path fill="#f6f8fb" stroke="#ccd6e4" stroke-width="1.2" d="M491,-483.5C491,-483.5 372,-483.5 372,-483.5 366,-483.5 360,-477.5 360,-471.5 360,-471.5 360,-451.5 360,-451.5 360,-445.5 366,-439.5 372,-439.5 372,-439.5 491,-439.5 491,-439.5 497,-439.5 503,-445.5 503,-451.5 503,-451.5 503,-471.5 503,-471.5 503,-477.5 497,-483.5 491,-483.5"/>
<text text-anchor="middle" x="431.5" y="-464.9" font-family="Arial" font-size="12.00" fill="#102b4e">Grafik görünümü</text>
<text text-anchor="middle" x="431.5" y="-451.9" font-family="Arial" font-size="12.00" fill="#102b4e">Başlık, seri, KPI, uyarı</text>
</g>
<!-- chart&#45;&gt;builder -->
<g id="edge3" class="edge">
<title>chart&#45;&gt;builder</title>
<path fill="none" stroke="#6e829c" stroke-width="1.4" d="M468.75,-439.49C468.75,-439.49 468.75,-400.06 468.75,-400.06"/>
<polygon fill="#6e829c" stroke="#6e829c" stroke-width="1.4" points="471.2,-400.06 468.75,-393.06 466.3,-400.06 471.2,-400.06"/>
</g>
<!-- provenance -->
<g id="node4" class="node">
<title>provenance</title>
<path fill="#f6f8fb" stroke="#ccd6e4" stroke-width="1.2" d="M716.5,-483.5C716.5,-483.5 540.5,-483.5 540.5,-483.5 534.5,-483.5 528.5,-477.5 528.5,-471.5 528.5,-471.5 528.5,-451.5 528.5,-451.5 528.5,-445.5 534.5,-439.5 540.5,-439.5 540.5,-439.5 716.5,-439.5 716.5,-439.5 722.5,-439.5 728.5,-445.5 728.5,-451.5 728.5,-451.5 728.5,-471.5 728.5,-471.5 728.5,-477.5 722.5,-483.5 716.5,-483.5"/>
<text text-anchor="middle" x="628.5" y="-464.9" font-family="Arial" font-size="12.00" fill="#102b4e">Kaynak izi ve veri sözleşmesi</text>
<text text-anchor="middle" x="628.5" y="-451.9" font-family="Arial" font-size="12.00" fill="#102b4e">Kaynak adı, metrik, birim, dönem</text>
</g>
<!-- provenance&#45;&gt;builder -->
<g id="edge4" class="edge">
<title>provenance&#45;&gt;builder</title>
<path fill="none" stroke="#6e829c" stroke-width="1.4" d="M576.5,-439.49C576.5,-439.49 576.5,-400.06 576.5,-400.06"/>
<polygon fill="#6e829c" stroke="#6e829c" stroke-width="1.4" points="578.95,-400.06 576.5,-393.06 574.05,-400.06 578.95,-400.06"/>
</g>
<!-- statistics -->
<g id="node5" class="node">
<title>statistics</title>
<path fill="#f6f8fb" stroke="#ccd6e4" stroke-width="1.2" d="M921,-483.5C921,-483.5 766,-483.5 766,-483.5 760,-483.5 754,-477.5 754,-471.5 754,-471.5 754,-451.5 754,-451.5 754,-445.5 760,-439.5 766,-439.5 766,-439.5 921,-439.5 921,-439.5 927,-439.5 933,-445.5 933,-451.5 933,-451.5 933,-471.5 933,-471.5 933,-477.5 927,-483.5 921,-483.5"/>
<text text-anchor="middle" x="843.5" y="-464.9" font-family="Arial" font-size="12.00" fill="#102b4e">Hesap planı ve istatistik</text>
<text text-anchor="middle" x="843.5" y="-451.9" font-family="Arial" font-size="12.00" fill="#102b4e">İşlemler, anomali/korelasyon</text>
</g>
<!-- statistics&#45;&gt;builder -->
<g id="edge5" class="edge">
<title>statistics&#45;&gt;builder</title>
<path fill="none" stroke="#6e829c" stroke-width="1.4" d="M843.5,-439.42C843.5,-413.5 843.5,-374 843.5,-374 843.5,-374 631.56,-374 631.56,-374"/>
<polygon fill="#6e829c" stroke="#6e829c" stroke-width="1.4" points="631.56,-371.55 624.56,-374 631.56,-376.45 631.56,-371.55"/>
</g>
<!-- activity -->
<g id="node6" class="node">
<title>activity</title>
<path fill="#f6f8fb" stroke="#ccd6e4" stroke-width="1.2" d="M1156.5,-483.5C1156.5,-483.5 970.5,-483.5 970.5,-483.5 964.5,-483.5 958.5,-477.5 958.5,-471.5 958.5,-471.5 958.5,-451.5 958.5,-451.5 958.5,-445.5 964.5,-439.5 970.5,-439.5 970.5,-439.5 1156.5,-439.5 1156.5,-439.5 1162.5,-439.5 1168.5,-445.5 1168.5,-451.5 1168.5,-451.5 1168.5,-471.5 1168.5,-471.5 1168.5,-477.5 1162.5,-483.5 1156.5,-483.5"/>
<text text-anchor="middle" x="1063.5" y="-464.9" font-family="Arial" font-size="12.00" fill="#102b4e">Agent aktivitesi</text>
<text text-anchor="middle" x="1063.5" y="-451.9" font-family="Arial" font-size="12.00" fill="#102b4e">Tamamlanma ve güvenli olay özeti</text>
</g>
<!-- activity&#45;&gt;builder -->
<g id="edge6" class="edge">
<title>activity&#45;&gt;builder</title>
<path fill="none" stroke="#6e829c" stroke-width="1.4" d="M1063.5,-439.43C1063.5,-408.24 1063.5,-355 1063.5,-355 1063.5,-355 631.66,-355 631.66,-355"/>
<polygon fill="#6e829c" stroke="#6e829c" stroke-width="1.4" points="631.66,-352.55 624.66,-355 631.66,-357.45 631.66,-352.55"/>
</g>
<!-- qwen -->
<g id="node8" class="node">
<title>qwen</title>
<path fill="#e8f0fb" stroke="#2f5b92" stroke-width="1.5" d="M601,-296C601,-296 458,-296 458,-296 452,-296 446,-290 446,-284 446,-284 446,-264 446,-264 446,-258 452,-252 458,-252 458,-252 601,-252 601,-252 607,-252 613,-258 613,-264 613,-264 613,-284 613,-284 613,-290 607,-296 601,-296"/>
<text text-anchor="middle" x="529.5" y="-277.4" font-family="Arial" font-size="12.00" fill="#102b4e">Qwen 3.8&#45;27B</text>
<text text-anchor="middle" x="529.5" y="-264.4" font-family="Arial" font-size="12.00" fill="#102b4e">Kaynaklı Türkçe ses metni</text>
</g>
<!-- builder&#45;&gt;qwen -->
<g id="edge7" class="edge">
<title>builder&#45;&gt;qwen</title>
<path fill="none" stroke="#6e829c" stroke-width="1.4" d="M529.5,-335.87C529.5,-335.87 529.5,-303.14 529.5,-303.14"/>
<polygon fill="#6e829c" stroke="#6e829c" stroke-width="1.4" points="531.95,-303.14 529.5,-296.14 527.05,-303.14 531.95,-303.14"/>
</g>
<!-- validator -->
<g id="node9" class="node">
<title>validator</title>
<path fill="#fff2df" stroke="#e87000" stroke-width="1.5" d="M600,-212C600,-212 459,-212 459,-212 453,-212 447,-206 447,-200 447,-200 447,-180 447,-180 447,-174 453,-168 459,-168 459,-168 600,-168 600,-168 606,-168 612,-174 612,-180 612,-180 612,-200 612,-200 612,-206 606,-212 600,-212"/>
<text text-anchor="middle" x="529.5" y="-193.4" font-family="Arial" font-size="12.00" fill="#102b4e">Ses metni doğrulayıcısı</text>
<text text-anchor="middle" x="529.5" y="-180.4" font-family="Arial" font-size="12.00" fill="#102b4e">Sayı · birim · kaynak · süre</text>
</g>
<!-- qwen&#45;&gt;validator -->
<g id="edge8" class="edge">
<title>qwen&#45;&gt;validator</title>
<path fill="none" stroke="#6e829c" stroke-width="1.4" d="M529.5,-251.93C529.5,-251.93 529.5,-219.21 529.5,-219.21"/>
<polygon fill="#6e829c" stroke="#6e829c" stroke-width="1.4" points="531.95,-219.21 529.5,-212.21 527.05,-219.21 531.95,-219.21"/>
</g>
<!-- tts -->
<g id="node10" class="node">
<title>tts</title>
<path fill="#eaf5ef" stroke="#26734d" stroke-width="1.5" d="M581,-128C581,-128 478,-128 478,-128 472,-128 466,-122 466,-116 466,-116 466,-96 466,-96 466,-90 472,-84 478,-84 478,-84 581,-84 581,-84 587,-84 593,-90 593,-96 593,-96 593,-116 593,-116 593,-122 587,-128 581,-128"/>
<text text-anchor="middle" x="529.5" y="-109.4" font-family="Arial" font-size="12.00" fill="#102b4e">Yerel TTS</text>
<text text-anchor="middle" x="529.5" y="-96.4" font-family="Arial" font-size="12.00" fill="#102b4e">Piper ile sesli yanıt</text>
</g>
<!-- validator&#45;&gt;tts -->
<g id="edge9" class="edge">
<title>validator&#45;&gt;tts</title>
<path fill="none" stroke="#6e829c" stroke-width="1.4" d="M529.5,-167.93C529.5,-167.93 529.5,-135.21 529.5,-135.21"/>
<polygon fill="#6e829c" stroke="#6e829c" stroke-width="1.4" points="531.95,-135.21 529.5,-128.21 527.05,-135.21 531.95,-135.21"/>
</g>
<!-- result -->
<g id="node11" class="node">
<title>result</title>
<path fill="#eaf5ef" stroke="#26734d" stroke-width="1.5" d="M640.5,-44C640.5,-44 418.5,-44 418.5,-44 412.5,-44 406.5,-38 406.5,-32 406.5,-32 406.5,-12 406.5,-12 406.5,-6 412.5,0 418.5,0 418.5,0 640.5,0 640.5,0 646.5,0 652.5,-6 652.5,-12 652.5,-12 652.5,-32 652.5,-32 652.5,-38 646.5,-44 640.5,-44"/>
<text text-anchor="middle" x="529.5" y="-25.4" font-family="Arial" font-size="12.00" fill="#102b4e">Sonuç paneli</text>
<text text-anchor="middle" x="529.5" y="-12.4" font-family="Arial" font-size="12.00" fill="#102b4e">Oynatıcı · seslendirilmiş metin · kaynaklar</text>
</g>
<!-- tts&#45;&gt;result -->
<g id="edge10" class="edge">
<title>tts&#45;&gt;result</title>
<path fill="none" stroke="#6e829c" stroke-width="1.4" d="M529.5,-83.93C529.5,-83.93 529.5,-51.21 529.5,-51.21"/>
<polygon fill="#6e829c" stroke="#6e829c" stroke-width="1.4" points="531.95,-51.21 529.5,-44.21 527.05,-51.21 531.95,-51.21"/>
</g>
</g>
</svg>
